<svg xmlns="http://www.w3.org/2000/svg" viewBox="0 0 500 500">
   <g id="freepik--Floor--inject-161">
      <ellipse id="freepik--floor--inject-161" cx="253.74" cy="341.76" rx="235.29" ry="135.85"
         style="fill:#f5f5f5"></ellipse>
   </g>
   <g id="freepik--Shadow--inject-161">
      <ellipse id="freepik--shadow--inject-161" cx="408.88" cy="369.84" rx="66.75" ry="38.54"
         style="fill:#e0e0e0"></ellipse>
      <polygon id="freepik--shadow--inject-161"
         points="239.95 390.63 164.65 347.14 250.72 297.45 326.03 340.93 239.95 390.63"
         style="fill:#e0e0e0"></polygon>
      <polygon id="freepik--shadow--inject-161"
         points="34.91 377.18 132.03 433.25 213.49 386.23 116.37 330.16 34.91 377.18"
         style="fill:#e0e0e0"></polygon>
   </g>
   <g id="freepik--Plants--inject-161">
      <g id="freepik--plants--inject-161">
         <path
            d="M322.57,310c-.15-2.53-.49-5.56-.9-9.08-1.53-13.36-3.62-31.66,1.92-49.19,3.37-10.67,11.49-23.32,24.17-26.83,2.82-.78,9.64-1.93,12.26,4.12a8.52,8.52,0,0,1,.65,2.75c.27,3.84-1.46,7.23-3.38,10.32-2.21,3.59-4.77,7-7.25,10.32-2.34,3.14-4.77,6.38-6.89,9.74a84.16,84.16,0,0,0-6,11.43l-.81-.35a84.82,84.82,0,0,1,6-11.55c2.13-3.39,4.57-6.65,6.93-9.8,2.46-3.3,5-6.7,7.2-10.25,1.84-3,3.5-6.21,3.25-9.8a7.58,7.58,0,0,0-.58-2.46c-2.34-5.41-8.62-4.33-11.21-3.62-12.34,3.42-20.27,15.8-23.57,26.24-5.48,17.36-3.4,35.55-1.88,48.83.4,3.53.75,6.58.9,9.13Z"
            style="fill:#F97B73"></path>
         <path
            d="M323.47,324.54a.71.71,0,0,1-.2,0,1.25,1.25,0,0,1-.89-.69,2.3,2.3,0,0,1,0-1.53,9.93,9.93,0,0,0,0-2.89c0-.54-.09-1.11-.09-1.62V311.6a75.44,75.44,0,0,1,9.57-31.73c4.88-8.49,10.28-14.14,17-17.8a32.15,32.15,0,0,1,11.7-3.75,14.68,14.68,0,0,1,10.22,2.7c3.05,2.41,4.42,6.54,3.27,9.81-.81,2.29-2.66,4-4.55,5.55-3.37,2.75-7.05,5.21-10.6,7.59-2.95,2-6,4-8.85,6.2a84.23,84.23,0,0,0-21.53,24.65c-.9,1.55-1.75,3.15-2.53,4.75l-.32.63a14.79,14.79,0,0,0-.82,1.77c-.05.13-.1.4-.17.71a3.73,3.73,0,0,1-.53,1.61A1,1,0,0,1,323.47,324.54ZM362,259.15c-.45,0-.9,0-1.36.06a30.88,30.88,0,0,0-11.35,3.64c-6.56,3.57-11.85,9.12-16.65,17.46a74.64,74.64,0,0,0-9.45,31.33v6.15c0,.48,0,1,.09,1.55a10.41,10.41,0,0,1,0,3.16,1.59,1.59,0,0,0,0,1,.38.38,0,0,0,.26.2,4.06,4.06,0,0,0,.36-1.17,6.12,6.12,0,0,1,.2-.82,15.11,15.11,0,0,1,.86-1.87l.31-.62c.8-1.62,1.66-3.23,2.56-4.8a87.73,87.73,0,0,1,6.21-9.32,84.39,84.39,0,0,1,15.55-15.59c2.88-2.2,5.94-4.25,8.9-6.23,3.54-2.37,7.19-4.82,10.54-7.54,1.78-1.45,3.53-3.08,4.27-5.16,1-2.93-.23-6.64-3-8.83A13.15,13.15,0,0,0,362,259.15Z"
            style="fill:#F97B73"></path>
         <path
            d="M322.72,316l-.11,0a.43.43,0,0,1-.32-.53c8.25-32.9,31.06-47.58,43.24-51.07a.44.44,0,0,1,.54.3.45.45,0,0,1-.3.55c-12,3.43-34.47,17.92-42.62,50.43A.45.45,0,0,1,322.72,316Z"
            style="fill:#F97B73"></path>
         <path
            d="M322.67,289h0a.45.45,0,0,1-.41-.48c2.63-35.53,25.87-55,28.51-57.09a.43.43,0,0,1,.62.07.44.44,0,0,1-.07.62c-2.61,2.07-25.58,21.31-28.17,56.47A.46.46,0,0,1,322.67,289Z"
            style="fill:#F97B73"></path>
      </g>
   </g>
   <g id="freepik--Box--inject-161">
      <g id="freepik--box--inject-161">
         <polygon points="205.78 384.44 132.02 427.03 48.96 378.96 122.72 336.38 205.78 384.44"
            style="fill:#F97B73"></polygon>
         <polygon points="205.78 384.44 132.02 427.03 48.96 378.96 122.72 336.38 205.78 384.44"
            style="opacity:0.5"></polygon>
         <polygon points="122.72 278.65 122.72 336.38 48.96 378.96 48.96 321.24 122.72 278.65"
            style="fill:#F97B73"></polygon>
         <polygon points="122.72 278.65 122.72 336.38 48.96 378.96 48.96 321.24 122.72 278.65"
            style="opacity:0.23"></polygon>
         <polygon points="132.02 369.3 132.02 427.03 48.96 378.96 48.96 321.24 132.02 369.3"
            style="fill:#F97B73"></polygon>
         <polygon points="132.02 369.3 132.02 427.03 48.96 378.96 48.96 321.24 132.02 369.3"
            style="opacity:0.38"></polygon>
         <polygon points="205.78 326.71 205.78 384.44 122.72 336.38 122.72 278.65 205.78 326.71"
            style="fill:#F97B73"></polygon>
         <polygon points="205.78 326.71 205.78 384.44 122.72 336.38 122.72 278.65 205.78 326.71"
            style="opacity:0.4"></polygon>
         <polygon points="205.78 384.44 205.78 326.71 132.02 369.3 132.02 427.03 205.78 384.44"
            style="fill:#F97B73"></polygon>
         <polygon points="205.78 384.44 205.78 326.71 132.02 369.3 132.02 427.03 205.78 384.44"
            style="opacity:0.23"></polygon>
         <polygon points="122.72 278.65 122.82 246.69 205.68 294.81 205.78 326.71 122.72 278.65"
            style="fill:#F97B73"></polygon>
         <polygon points="122.72 278.65 122.82 246.69 205.68 294.81 205.78 326.71 122.72 278.65"
            style="opacity:0.2"></polygon>
         <polygon points="132.02 369.3 138.94 341.34 212.03 299.14 205.78 326.71 132.02 369.3"
            style="fill:#F97B73"></polygon>
         <polygon points="132.02 369.3 138.94 341.34 212.03 299.14 205.78 326.71 132.02 369.3"
            style="opacity:0.30000000000000004"></polygon>
         <polygon points="48.96 321.24 40.16 292.24 113.92 249.66 122.72 278.65 48.96 321.24"
            style="fill:#F97B73"></polygon>
         <polygon points="48.96 321.24 40.16 292.24 113.92 249.66 122.72 278.65 48.96 321.24"
            style="opacity:0.1"></polygon>
         <polygon points="48.96 321.24 31.6 297.27 114.67 345.33 132.02 369.3 48.96 321.24"
            style="fill:#F97B73"></polygon>
         <polygon points="48.96 321.24 31.6 297.27 114.67 345.33 132.02 369.3 48.96 321.24"
            style="opacity:0.45"></polygon>
         <g style="opacity:0.7000000000000001">
            <path
               d="M153.74,409.86a.46.46,0,0,1-.46-.45V399.25a.47.47,0,0,1,.46-.46.46.46,0,0,1,.45.46v10.16A.45.45,0,0,1,153.74,409.86Z"
               style="fill:#fff"></path>
            <path
               d="M152.41,402.77a.58.58,0,0,1-.18,0,.47.47,0,0,1-.24-.6l1.62-3.73,1.8,2.08a.46.46,0,0,1-.69.6l-.85-1-1,2.4A.47.47,0,0,1,152.41,402.77Z"
               style="fill:#fff"></path>
            <path
               d="M157.93,407.47a.46.46,0,0,1-.45-.46V396.86a.45.45,0,1,1,.9,0V407A.46.46,0,0,1,157.93,407.47Z"
               style="fill:#fff"></path>
            <path
               d="M156.6,400.38a.58.58,0,0,1-.18,0,.45.45,0,0,1-.23-.6L157.8,396l1.8,2.07a.46.46,0,0,1,0,.64.45.45,0,0,1-.64,0l-.85-1-1,2.4A.46.46,0,0,1,156.6,400.38Z"
               style="fill:#fff"></path>
         </g>
         <g style="opacity:0.7000000000000001">
            <path
               d="M141.65,416.75a1,1,0,0,1-.49-.12,1.2,1.2,0,0,1-.55-1.09v-1.25a.46.46,0,0,1,.46-.45.45.45,0,0,1,.45.45v1.25c0,.18,0,.28.09.3s.14,0,.29-.08a2.65,2.65,0,0,0,.85-2.05v-5.2a.45.45,0,1,1,.9,0v5.2a3.44,3.44,0,0,1-1.29,2.83A1.41,1.41,0,0,1,141.65,416.75Z"
               style="fill:#fff"></path>
            <path
               d="M136.88,412.56v-.78a12.87,12.87,0,0,1,5.79-10c1.64-.94,3.2-1.08,4.4-.38a4.33,4.33,0,0,1,1.86,4v.26Zm8.51-10.74a4.7,4.7,0,0,0-2.26.7,12,12,0,0,0-5.3,8.45L148,405.09a3.37,3.37,0,0,0-1.41-3A2.38,2.38,0,0,0,145.39,401.82Z"
               style="fill:#fff"></path>
         </g>
         <polygon points="31.6 297.27 114.67 345.33 132.02 369.3 113.75 346.18 31.6 297.27"
            style="fill:#fff;opacity:0.7000000000000001"></polygon>
         <polygon points="205.78 326.71 132.02 369.3 132.02 427.03 133.4 370.46 205.78 326.71"
            style="fill:#fff;opacity:0.7000000000000001"></polygon>
      </g>
   </g>
   <g id="freepik--Moth--inject-161">
      <g id="freepik--moth--inject-161">
         <path
            d="M97.54,303.62c7.61-1.1,14.56-6,19-12.16a29,29,0,0,0,4.5-9.54,20.43,20.43,0,0,0,.46-9.88c-1.37-5.49-6.45-8.74-11.82-9.42a18,18,0,0,0-8.1.79,13.68,13.68,0,0,0-6.7,5A8.28,8.28,0,0,0,93,272.77a2.5,2.5,0,0,0,2.24,2.55,7.22,7.22,0,0,0,4.57-1.16,14.49,14.49,0,0,0,4.27-3.64,30.56,30.56,0,0,0,5.54-10.5,21.09,21.09,0,0,0,0-10,18.46,18.46,0,0,0-4.53-9.21,16.76,16.76,0,0,0-9.74-4.29,23.72,23.72,0,0,0-10.74,1,11.49,11.49,0,0,0-4.13,2.26c-.86.8-1.84,2.12-1.49,3.42s2.25,1.88,3.54,1.71a9.28,9.28,0,0,0,5-2.71,21.35,21.35,0,0,0,3.77-5,8.78,8.78,0,0,0,1.13-4.34c-.13-6.34-7.14-10.44-12.63-11.6a16.25,16.25,0,0,0-4.51-.3c-.51,0-.2.84.21.81A16.48,16.48,0,0,1,84,223.69a14.22,14.22,0,0,1,6.21,5.53,7.61,7.61,0,0,1-.24,7.74,20.53,20.53,0,0,1-3.62,4.62c-1.19,1.08-3,2.33-4.67,2.21a1.47,1.47,0,0,1-1.32-.83,2.13,2.13,0,0,1,.59-1.82A8.37,8.37,0,0,1,84.14,239a21,21,0,0,1,9.49-1.56,17,17,0,0,1,9.34,3,14.69,14.69,0,0,1,4.86,7.71,22.64,22.64,0,0,1,.88,9.5,24.35,24.35,0,0,1-3.63,9c-1.85,3.06-4.17,6-7.65,7.2-.86.31-2.66.76-3-.49s.64-2.79,1.27-3.76a12.72,12.72,0,0,1,5.82-4.91,16.07,16.07,0,0,1,7.29-1.1c4.71.35,9.49,2.81,11.13,7.49a17,17,0,0,1,.26,8.6,27.64,27.64,0,0,1-3.31,8.84A31.58,31.58,0,0,1,102,301.51c-1.48.64-3,1.18-4.55,1.68-.16.06-.09.46.09.43Z"
            style="fill:#e0e0e0"></path>
         <path
            d="M65.75,216.8c-4-.29-9.51,2.86-7.55,5.16s7.16-1.42,7.16-1.42-.49,4.65,1.21,5.18,4-3.91,2.3-6.75a5.23,5.23,0,0,0,5-.64c2.42-1.78-.14-3.46-3.55-3.16,0,0,2.44-8-2.49-6.47C65.36,209.45,64.49,212.34,65.75,216.8Z"
            style="fill:#F97B73"></path>
         <path
            d="M65.75,216.8c-4-.29-9.51,2.86-7.55,5.16s7.16-1.42,7.16-1.42-.49,4.65,1.21,5.18,4-3.91,2.3-6.75a5.23,5.23,0,0,0,5-.64c2.42-1.78-.14-3.46-3.55-3.16,0,0,2.44-8-2.49-6.47C65.36,209.45,64.49,212.34,65.75,216.8Z"
            style="fill:#fff;opacity:0.65"></path>
         <path
            d="M69.47,218.5a8,8,0,0,0-.7-.61c-.35-.27-.72-.53-1.07-.79a9.12,9.12,0,0,0-1.07-.67,6.65,6.65,0,0,0-.66-.32,1.83,1.83,0,0,0-1-.16.5.5,0,0,0-.4.78,2.5,2.5,0,0,0,1,.66l.54.29c.37.22.7.47,1,.72s.7.49,1,.74a6.53,6.53,0,0,0,1.71,1,.19.19,0,0,0,.18,0C70.51,219.74,69.76,218.79,69.47,218.5Z"
            style="fill:#455a64"></path>
      </g>
   </g>
   <g id="freepik--Character--inject-161">
      <g id="freepik--character--inject-161">
         <path
            d="M388.28,106.79c-4.37,5.88-10.22,38.21-12.43,48.58-10.63-.31-24.85-.81-30.23-1.37-6-.63-18.81-1.86-25.1-1-15.61,2-15,12.26-14.62,14.94.41,3.06,2.6,4.46,11,2.55a28.92,28.92,0,0,1,5.72-.67c.81,0,2.52-.41,3.16.28,1,1-1.89,2.68-2.61,3.14-1.11.72-2.27,1.63-2.5,2.93a1.29,1.29,0,0,0,.41,1.33,1.68,1.68,0,0,0,1.27,0,45.08,45.08,0,0,0,11-4.19,25.52,25.52,0,0,1,4.11-2c2.17-.7,4.41-.29,6.59-.29,4.69,0,29.48,2.46,40.5,3.58,7.63.77,8.44-6.76,11.07-14.39C398.85,150.75,406.5,101,406.5,101,398.78,99.88,393.48,99.81,388.28,106.79Z"
            style="fill:#ffa8a7"></path>
         <path
            d="M406.62,100.22c-3.69-.68-12-1.71-16.52,3.34s-5.59,10.35-7.58,18S377,142.91,377,142.91s5.83,8.37,24.08,6Z"
            style="fill:#37474f"></path>
         <polygon points="452.45 364.64 439.62 364.65 435.93 336.8 452.12 336.16 452.45 364.64"
            style="fill:#ffa8a7"></polygon>
         <path d="M409.85,350.73c-2.18,3.79-9.19,3.48-15,2.14l-.67-27.38,17.15-.68Z"
            style="fill:#ffa8a7"></path>
         <path
            d="M451.58,188.66c.46,11.85-1.11,81.92-1.11,81.92.43,3.4,3.95,9.33,4.68,21.6C456.22,310,452.59,348,452.59,348s-7.35,3.84-15.27.9c0,0-8.06-55-11-72.58-2.54-15.3-5.8-56.34-5.8-56.34l-6.33,52.6a87.29,87.29,0,0,1,1.43,18.89c-.26,8.18-4.92,47.9-4.92,47.9a28.49,28.49,0,0,1-16.42.39s-3.82-61.64-4.26-69.11c-.5-8.52-.16-83.73-.16-83.73Z"
            style="fill:#F97B73"></path>
         <path d="M420.54,220s-11.21-3.18-18.85-10c0,0,3.58,6.11,13.72,11.53l-.58,45.91Z"
            style="opacity:0.2"></path>
         <path
            d="M425,387.87c-.41.42-.17,3.19.33,3.91s3.56,3.16,8.87,3.34c5.07.16,9.55-.7,12.44-2.7s4.25-4.13,4.42-7-.26-5.66,1-7.93c1.19-2.09,3.12-4.48,3.51-5.61.87-2.45-.19-5.86-.19-5.86Z"
            style="fill:#263238"></path>
         <path
            d="M437.8,362.2a11.11,11.11,0,0,1-.46,3.23,33.1,33.1,0,0,1-4.83,9.51c-1.46,1.87-3.3,3.44-4.85,5.25a10.39,10.39,0,0,0-2.88,6.33c-.06,4,4.3,5.15,7.63,5.61a24.28,24.28,0,0,0,10.74-1,9.87,9.87,0,0,0,6.94-8.18c.14-1.11,0-2.23.12-3.34a15.56,15.56,0,0,1,2.81-7.06,21.55,21.55,0,0,0,2.22-3.86c.93-2.5,0-5.23-.76-7.64-.65-2.09-1.39-4.46-2.12-4.23,0,1.11,0,1.21-.71,2-1,1-.95,2.39-2,3.26a14.16,14.16,0,0,0,.62-2.84,1.63,1.63,0,0,0-.27-1.12,3,3,0,0,0-1.24-.6,24.26,24.26,0,0,0-4.85-.91,14.52,14.52,0,0,0-4.7.15,2.09,2.09,0,0,0-1.16.73,2.42,2.42,0,0,0-.37,1.37C437.68,359.51,437.79,361.14,437.8,362.2Z"
            style="fill:#455a64"></path>
         <path
            d="M434,372.73c1.44-1.16,4.74-1.31,6.56-1.18a10.9,10.9,0,0,1,5.21,1.6,1.17,1.17,0,0,0,1.51-.18h0a1.11,1.11,0,0,0-.18-1.68,11.19,11.19,0,0,0-5.87-1.92c-4.46-.13-5.73.68-5.73.68S433.51,371.43,434,372.73Z"
            style="fill:#f5f5f5"></path>
         <path
            d="M430.76,376.93c1.81-1.17,5.46-1.16,7.27-1a10.37,10.37,0,0,1,5.08,1.71,1.16,1.16,0,0,0,1.5-.18h0a1.1,1.1,0,0,0-.17-1.68,11.57,11.57,0,0,0-6-2.08c-4.47-.14-5.59.81-5.59.81A3.68,3.68,0,0,0,430.76,376.93Z"
            style="fill:#f5f5f5"></path>
         <path
            d="M442.83,365.05a11.06,11.06,0,0,0-5.58.68c-.76.47-1.23,1.73-.72,2a10.31,10.31,0,0,1,4.94-.88,14.6,14.6,0,0,1,4.86,1.14c.39.15.85.37,1.25.57a1.06,1.06,0,0,0,1.45-.51h0a1,1,0,0,0-.44-1.26A14.12,14.12,0,0,0,442.83,365.05Z"
            style="fill:#f5f5f5"></path>
         <path
            d="M365.53,367.81a4.82,4.82,0,0,0,0,3.56c.44,1.07,5.74,4.39,13.1,4.25A30.68,30.68,0,0,0,394.09,371c2.89-1.72,5.82-1.93,9.46-2s8.5-1.62,9.38-3.28.1-4.63.1-4.63Z"
            style="fill:#263238"></path>
         <path
            d="M396.23,346.31l-.57-.15a2.47,2.47,0,0,0-1-.09,1.8,1.8,0,0,0-.93.56,18.17,18.17,0,0,0-2,2.86c-1.65,2.43-5,4.36-8.6,6.09-2.46,1.17-4.85,2.06-7.38,3.05s-6,1.55-8,2.79c-3,1.81-3.57,6.66-.39,8.74,2.76,1.8,10.12,3.95,18,2.11,4.31-1,9.25-5.32,14.85-5.49,3.57-.11,10.33-.79,12.74-3.38.91-1.15,0-5-.81-8.32-.84-3.62-.46-9-2.08-9l-.1,1.81c-.15.54-1.42,1.07-1.82,1.49l-1.44,1.52a7.17,7.17,0,0,1-2.12,1.72c-1.43.64-3.1.26-4.63-.14-.06,0,.77-2.78.86-3.05a1.2,1.2,0,0,0,.08-.67,1,1,0,0,0-.43-.53A11.34,11.34,0,0,0,396.23,346.31Z"
            style="fill:#455a64"></path>
         <path
            d="M386.55,353.8a3.31,3.31,0,0,1,2.71-1.63c1.63-.22,4.42,1.1,6.13,2.65a1.33,1.33,0,0,1-.3,2.18h0a1.31,1.31,0,0,1-1.5-.24A10.16,10.16,0,0,0,386.55,353.8Z"
            style="fill:#f5f5f5"></path>
         <path
            d="M381.41,356.37a3.79,3.79,0,0,1,3.18-1.45s4.22.32,6.71,2.88a1.29,1.29,0,0,1-.28,2.1h0a1.28,1.28,0,0,1-1.45-.23A10.14,10.14,0,0,0,381.41,356.37Z"
            style="fill:#f5f5f5"></path>
         <path
            d="M375.76,358.63a4.25,4.25,0,0,1,3.3-1.29,11.43,11.43,0,0,1,6.42,2.89,1.3,1.3,0,0,1-.28,2.11h0a1.26,1.26,0,0,1-1.45-.24A9.73,9.73,0,0,0,375.76,358.63Z"
            style="fill:#f5f5f5"></path>
         <path
            d="M428,100.44c4.72.54,10.3.83,14.81,1.42,5.81.76,10.34,6.77,11.76,16.07,1.56,10.24-5,39.6-5,39.6l2.09,34.62c-8.51,6.27-44.75,9.56-62.81-3.48,0,0,.42-58.92,1.83-68,1.94-12.45,5-20.18,19-21.07Z"
            style="fill:#455a64"></path>
         <path
            d="M460.27,175.44c-1.53,2.56-3.07,5.12-4.65,7.65-.58.94-1.17,1.87-1.78,2.79a6.61,6.61,0,0,1-1.15,1.21c-.76.52-2.34.19-3.26.22q-6.78.23-13.52,1a2.57,2.57,0,0,0-2,.86,1.76,1.76,0,0,0,.64,2.24,5.07,5.07,0,0,0,2.43.72l3.9.46a3,3,0,0,1,1.56.5c1.42,1.15-1.29,2.53-2.1,3.09a29.56,29.56,0,0,1-5.19,2.88c-8.13,3.42-9.12,5.9-7.62,8.72,1.3,2.45,6.92,11.36,21.2,3.69,5.75-3.09,14.5-12.85,18.49-17.57,5.74-6.81,15.45-22,15.45-22,5.52-7.58,6.23-10.69,6.36-13.84s-17-27.38-22.82-35.89-8.59-18.86-23.4-20.28c0,0-5.64,17.88,3.7,29.45l21.57,30.09S462.37,171.93,460.27,175.44Z"
            style="fill:#ffa8a7"></path>
         <path
            d="M475.92,133.71c-2.77-4-5.66-8.12-8.45-12.2-11.75-17.15-10.76-20.29-27.7-20.53-1.5,2.3-2.39,12.2-.13,22.14,1.89,8.35,9,14.24,9,14.24l8.48,11.49s5.19-.16,11.41-4.72A19,19,0,0,0,475.92,133.71Z"
            style="fill:#37474f"></path>
         <path
            d="M439.17,55.37a8.45,8.45,0,0,0-7.85-3.7l-.88,21.47L429,81.07l.25,8.83A5,5,0,0,0,433.11,87c1.32-2.54,5-14.82,5-14.82h0C441.41,62.09,440.71,57.53,439.17,55.37Z"
            style="fill:#263238"></path>
         <path
            d="M429.44,73.24a7.57,7.57,0,0,1,2.07-3.42c1.23-1.32,6.13-2.75,8.36,1.41s-1.53,9.65-4.43,11.33c-3.71,2.16-5.89-.78-5.89-.78l.09,19.77h0c-1.73,4-9.54,7.56-14.19,7-3.7-.47-7.11-3.38-3.8-7.62l-.27-5.64s-4.95,1-7.4.75c-4.07-.42-6.78-3.49-8.22-7.81-2.32-6.94-3.35-12.58-2.37-26.5,1.08-15.25,18.71-16.28,28.54-10.76S429.44,73.24,429.44,73.24Z"
            style="fill:#ffa8a7"></path>
         <path
            d="M387.78,45.89c-.45-3.33.7-6.9,4.19-8.08a7.37,7.37,0,0,1,7.74,1.29,6.74,6.74,0,0,1,12-1.27,6.58,6.58,0,0,1,4-2.79,7.76,7.76,0,0,1,5.94,1.08c1.42,1.05,3.09,3,2.67,5.53,2.81-1.13,5.74-.19,7.83,2.29a8.85,8.85,0,0,1,2,5.37,7.16,7.16,0,0,1-.43,3c-.4.91-1.22,1.51-1.46,2.54a7.93,7.93,0,0,0-.53,2.84c.23,1.68.6,3.36.82,5a40.63,40.63,0,0,1,.41,4.93,2.73,2.73,0,0,1-1.21,1.92,7.74,7.74,0,0,0-2.11,3c-.35.72-.69,2.5-1.38,3-2.13,1.49-2.37-3.33-2.47-4.26a50.05,50.05,0,0,1,0-6.41,7.7,7.7,0,0,1-5.67-2.6,6.64,6.64,0,0,1-1.41-3.14,10.8,10.8,0,0,1-.16-2c-1.39,2.3-4.62,3.24-6.92,3-3.86-.35-5.19-2-5.81-3.21a7.67,7.67,0,0,1-1.53,3.26,8.73,8.73,0,0,1-3.47,2,6.37,6.37,0,0,1-6.31-1.82c-1.57,2.25-5.55,1.25-6.43.62-2-1.45-2.65-3.18-2.87-5.65s.78-5.29,3.52-6.26A9.87,9.87,0,0,1,387.78,45.89Z"
            style="fill:#263238"></path>
         <path
            d="M411.38,95.26s8.94-2.26,12-4.1a10.39,10.39,0,0,0,4.15-4.54,14.27,14.27,0,0,1-2.23,5.22c-2.16,3.07-13.82,5.83-13.82,5.83Z"
            style="fill:#f28f8f"></path>
         <path d="M411.88,72.58a1.94,1.94,0,1,0,1.84-2.11A2,2,0,0,0,411.88,72.58Z"
            style="fill:#263238"></path>
         <path d="M408.89,87.05a2.5,2.5,0,1,0,2.36-2.73A2.57,2.57,0,0,0,408.89,87.05Z"
            style="fill:#f28f8f"></path>
         <path d="M413.49,65.92l4.12,2a2.42,2.42,0,0,0-1.09-3.15A2.24,2.24,0,0,0,413.49,65.92Z"
            style="fill:#263238"></path>
         <path d="M395.57,67.65l3.51-3a2.21,2.21,0,0,0-3.2-.33A2.43,2.43,0,0,0,395.57,67.65Z"
            style="fill:#263238"></path>
         <path d="M396.62,72.19a1.88,1.88,0,1,0,1.78-2A1.91,1.91,0,0,0,396.62,72.19Z"
            style="fill:#263238"></path>
         <polygon points="405.9 69.97 405.84 81.8 399.58 80 405.9 69.97" style="fill:#f28f8f"></polygon>
         <path
            d="M390.19,86.52a.44.44,0,0,0,.28-.2.45.45,0,0,0-.12-.64l-5.44-3.62a.46.46,0,0,0-.64.13.45.45,0,0,0,.13.64l5.43,3.62A.43.43,0,0,0,390.19,86.52Z"
            style="fill:#e0e0e0"></path>
         <path
            d="M389.61,88.86a.48.48,0,0,0,.35-.35.47.47,0,0,0-.35-.56l-6.36-1.47a.46.46,0,0,0-.56.34.47.47,0,0,0,.35.56l6.36,1.48A.74.74,0,0,0,389.61,88.86Z"
            style="fill:#e0e0e0"></path>
         <path
            d="M383.7,93.09l.06,0,6.13-2.24a.46.46,0,1,0-.32-.87l-6.13,2.24a.46.46,0,0,0-.27.6A.46.46,0,0,0,383.7,93.09Z"
            style="fill:#e0e0e0"></path>
         <path
            d="M331.84,141.06a1.45,1.45,0,0,0,2.66-.15l4.56-11.25a1.45,1.45,0,1,0-2.72-1l-4.57,11.25A1.45,1.45,0,0,0,331.84,141.06Z"
            style="fill:#e0e0e0"></path>
         <path
            d="M324.33,141a1.45,1.45,0,0,0,2.75-.66l-.15-14a1.45,1.45,0,0,0-2.89,0l.14,14A1.45,1.45,0,0,0,324.33,141Z"
            style="fill:#e0e0e0"></path>
         <path
            d="M311.6,133.21l.09.17,6.89,10a1.45,1.45,0,0,0,2,.4,1.47,1.47,0,0,0,.39-2l-6.89-10a1.44,1.44,0,0,0-2.49,1.44Z"
            style="fill:#e0e0e0"></path>
      </g>
   </g>
</svg>